#!OML:ASF F:\VICON\USERDATA\INSTALL\rory3\rory3.ASF
:FULLY-SPECIFIED
:DEGREES
212
root 0.324497 17.3305 12.8191 -0.906033 -3.03746 -5.82165
lowerback 7.48192 0.50675 4.84752
upperback 0.381776 1.223 3.51974
thorax -3.78229 0.550886 0.798417
lowerneck -16.4061 -2.96537 -9.85232
upperneck 23.1368 -2.86737 5.53024
head 10.3413 -1.54097 3.23197
rclavicle -4.79568e-015 -4.69132e-014
rhumerus -25.1393 -6.28983 -78.9984
rradius 32.5404
rwrist 2.90079
rhand -15.0836 12.9922
rfingers 7.12502
rthumb 11.0841 -16.6951
lclavicle -4.79568e-015 -4.69132e-014
lhumerus -35.5228 5.27011 86.8994
lradius 29.39
lwrist -17.5866
lhand -9.75296 25.5469
lfingers 7.12502
lthumb 16.2215 54.8883
rfemur 2.72341 4.47068 31.664
rtibia 20.8436
rfoot -15.6105 -1.87672
rtoes 8.38998
lfemur -31.9434 6.58816 -14.0072
ltibia 53.6549
lfoot -9.31256 2.39305
ltoes -5.10263
213
root 0.333204 17.3276 12.9967 -0.765193 -3.27967 -5.68681
lowerback 7.59229 0.624968 4.75497
upperback 0.298194 1.38316 3.45787
thorax -3.92851 0.62813 0.76749
lowerneck -16.0791 -2.95323 -9.75452
upperneck 22.8185 -2.86115 5.36764
head 10.1598 -1.54742 3.1526
rclavicle -2.88238e-015 -3.22031e-014
rhumerus -24.7479 -5.88156 -78.9379
rradius 32.9758
rwrist 2.87037
rhand -14.9175 13.5157
rfingers 7.12502
rthumb 11.2443 -16.1629
lclavicle -2.88238e-015 -3.22031e-014
lhumerus -35.7334 5.38758 87.1217
lradius 28.8294
lwrist -16.9564
lhand -10.9156 25.5157
lfingers 7.12502
lthumb 15.1018 54.9448
rfemur 3.36949 4.54593 31.5368
rtibia 20.533
rfoot -15.6876 -2.05801
rtoes 7.91154
lfemur -32.1705 6.42149 -14.2062
ltibia 51.0673
lfoot -9.11194 3.06319
ltoes -5.57229
214
root 0.344676 17.3283 13.1773 -0.558179 -3.47926 -5.86358
lowerback 7.62019 0.730673 5.02528
upperback 0.17638 1.55681 3.46462
thorax -4.06115 0.705509 0.604472
lowerneck -15.7727 -2.94829 -9.69342
upperneck 22.6418 -2.87399 5.27314
head 10.037 -1.55985 3.10451
rclavicle -2.23633e-015 -2.38542e-014
rhumerus -24.5451 -5.34997 -78.8728
rradius 33.4788
rwrist 2.5887
rhand -15.084 13.952
rfingers 7.12502
rthumb 11.0837 -15.7353
lclavicle -2.23633e-015 -2.38542e-014
lhumerus -36.1135 5.47011 87.3281
lradius 28.4751
lwrist -16.499
lhand -11.7439 25.0072
lfingers 7.12502
lthumb 14.3038 54.4945
rfemur 3.92069 4.4451 31.6865
rtibia 20.2588
rfoot -15.7324 -1.99711
rtoes 8.00872
lfemur -32.361 6.17561 -14.0393
ltibia 48.3112
lfoot -8.73147 3.96946
ltoes -3.76994
215
root 0.354552 17.3204 13.3605 -0.37532 -3.62466 -5.85411
lowerback 7.52609 0.819088 5.06676
upperback 0.143597 1.67116 3.43025
thorax -4.03734 0.761107 0.534643
lowerneck -15.792 -2.93135 -9.71964
upperneck 22.6165 -2.83739 5.26317
head 10.0289 -1.54557 3.10981
rclavicle -4.91992e-015 2.14687e-014
rhumerus -24.2085 -4.89947 -78.8152
rradius 33.9941
rwrist 2.08653
rhand -15.1549 14.4604
rfingers 7.12502
rthumb 11.0153 -15.2306
lclavicle -4.91992e-015 2.14687e-014
lhumerus -36.5477 5.80693 87.3988
lradius 28.4457
lwrist -16.9704
lhand -11.5035 24.8355
lfingers 7.12502
lthumb 14.5355 54.3063
rfemur 4.58895 4.46772 31.6585
rtibia 19.9708
rfoot -15.922 -2.06707
rtoes 7.99223
lfemur -32.363 5.77564 -14.0329
ltibia 45.4087
lfoot -8.44184 4.70858
ltoes -2.03631
216
root 0.362827 17.2985 13.5461 -0.235185 -3.65938 -5.84363
lowerback 7.32734 0.874736 5.08435
upperback 0.198413 1.72652 3.40078
thorax -3.86542 0.791782 0.491946
lowerneck -15.7641 -2.96309 -9.75314
upperneck 22.4895 -2.87051 5.25588
head 9.98174 -1.56275 3.10621
rclavicle 4.89507e-015 1.35174e-014
rhumerus -23.8302 -4.27797 -78.7914
rradius 34.634
rwrist 1.47256
rhand -15.2613 14.2712
rfingers 7.12502
rthumb 10.9128 -15.4252
lclavicle 4.89507e-015 1.35174e-014
lhumerus -36.7219 6.0963 87.4761
lradius 28.2773
lwrist -17.374
lhand -11.2697 25.0077
lfingers 7.12502
lthumb 14.7607 54.4621
rfemur 5.35949 4.41111 31.643
rtibia 19.5876
rfoot -16.1341 -2.19074
rtoes 7.1806
lfemur -32.2585 5.23965 -13.9529
ltibia 42.4422
lfoot -8.29422 5.18709
ltoes -3.79132
217
root 0.370583 17.2795 13.7284 -0.0470457 -3.77929 -5.9105
lowerback 7.09584 0.951915 5.11869
upperback 0.295061 1.80846 3.41781
thorax -3.63189 0.837405 0.486975
lowerneck -15.6606 -3.00416 -9.74662
upperneck 22.1551 -2.93024 5.248
head 9.84799 -1.58655 3.089
rclavicle -1.21756e-014 -1.63003e-014
rhumerus -23.1184 -3.92118 -78.7525
rradius 34.891
rwrist 1.34376
rhand -15.3665 14.0789
rfingers 7.12502
rthumb 10.8112 -15.6228
lclavicle -1.21756e-014 -1.63003e-014
lhumerus -36.5943 6.50156 87.5301
lradius 27.8716
lwrist -18.061
lhand -10.6984 25.6087
lfingers 7.12502
lthumb 15.311 55.022
rfemur 6.01086 4.46435 31.7085
rtibia 19.2129
rfoot -16.1 -2.24594
rtoes 6.65909
lfemur -32.203 4.62661 -13.6959
ltibia 39.4004
lfoot -7.88833 5.59471
ltoes -5.9684
218
root 0.378988 17.2651 13.9131 0.201181 -4.11293 -6.23542
lowerback 6.97469 1.14195 5.42385
upperback 0.322262 2.07573 3.47182
thorax -3.51974 0.96766 0.350088
lowerneck -15.7321 -3.04411 -9.69627
upperneck 22.05 -3.00053 5.2941
head 9.8295 -1.60686 3.0856
rclavicle 1.10325e-014 -3.22031e-014
rhumerus -22.3237 -3.95597 -78.654
rradius 34.8013
rwrist 1.27101
rhand -15.4726 14.538
rfingers 7.12502
rthumb 10.7089 -15.1691
lclavicle 1.10325e-014 -3.22031e-014
lhumerus -36.6302 6.74429 87.581
lradius 27.6358
lwrist -18.19
lhand -9.61161 26.2304
lfingers 7.12502
lthumb 16.3576 55.5606
rfemur 6.65384 4.70993 32.0175
rtibia 18.8669
rfoot -16.0027 -2.1643
rtoes 6.60424
lfemur -32.189 3.96173 -13.0405
ltibia 36.3276
lfoot -7.35926 6.17091
ltoes -6.77975
